<svg id="Layer_1" data-name="Layer 1" xmlns="http://www.w3.org/2000/svg" viewBox="0 0 792 612"><defs><style>.cls-1,.cls-8{fill:#fff;}.cls-2,.cls-7{fill:#2d7daa;}.cls-3,.cls-4,.cls-5,.cls-6{fill:none;}.cls-3,.cls-4,.cls-7{stroke:#2d7daa;}.cls-3,.cls-4,.cls-5,.cls-7{stroke-miterlimit:10;}.cls-3{stroke-width:12px;}.cls-4,.cls-7{stroke-width:3px;}.cls-5,.cls-6,.cls-8{stroke:#fff;}.cls-5,.cls-6{stroke-width:30px;}.cls-6{stroke-linecap:round;stroke-linejoin:round;}</style></defs><title>zuyderlicht_blauw</title><path class="cls-1" d="M533.84,240.42a131.35,131.35,0,0,1,36.44-37.68.41.41,0,0,0,.13-.08,24,24,0,0,0,3.85-2.53,130.61,130.61,0,1,1,1.37,221.7,31.58,31.58,0,0,0-4.6-3,130.71,130.71,0,0,1-37.19-178.44Z"/><path class="cls-1" d="M575.63,421.83q-2.34-1.43-4.6-3A31.58,31.58,0,0,1,575.63,421.83Z"/><path class="cls-1" d="M574.26,200.13a24,24,0,0,1-3.85,2.53C571.68,201.8,573,200.94,574.26,200.13Z"/><path class="cls-2" d="M570.28,202.74a131.35,131.35,0,0,0-36.44,37.68c-65.15,11.5-185.58,11.5-250.75,0a130.66,130.66,0,0,0-36.74-37.84C292.3,228.36,523.58,228.41,570.28,202.74Z"/><path class="cls-2" d="M533.35,379.9a131.31,131.31,0,0,0,37.68,39c-48-25.8-268.45-29.7-323.12-1.45a131,131,0,0,0,36.63-39.08C353,367.29,466.86,368.72,533.35,379.9Z"/><path class="cls-2" d="M533.84,240.42a130.79,130.79,0,0,0-.49,139.48c-66.49-11.18-180.35-12.61-248.81-1.57a130.78,130.78,0,0,0-1.45-137.88C348.26,251.92,468.69,251.92,533.84,240.42Z"/><path class="cls-1" d="M283.09,240.45a130.46,130.46,0,0,1-35.18,177,35.67,35.67,0,0,0-7.16,4.71,130.62,130.62,0,1,1,1.94-221.93,25.52,25.52,0,0,0,3.66,2.42A130.66,130.66,0,0,1,283.09,240.45Z"/><path class="cls-1" d="M246.35,202.61a25.52,25.52,0,0,1-3.66-2.42C243.93,201,245.17,201.75,246.35,202.61Z"/><path class="cls-1" d="M247.91,417.41c-2.34,1.67-4.71,3.23-7.16,4.71A35.67,35.67,0,0,1,247.91,417.41Z"/><path class="cls-3" d="M283.09,240.45a130.46,130.46,0,0,1-35.18,177c-2.34,1.67-4.71,3.23-7.16,4.71a130.62,130.62,0,1,1,1.94-221.93c1.24.78,2.48,1.56,3.66,2.42A130.66,130.66,0,0,1,283.09,240.45Z"/><path class="cls-3" d="M570.41,202.66c1.27-.86,2.56-1.72,3.85-2.53a130.61,130.61,0,1,1,1.37,221.7q-2.34-1.43-4.6-3a130.63,130.63,0,0,1-.75-216.12"/><path class="cls-4" d="M570.28,202.74c-46.7,25.67-278,25.62-323.93-.13a25.52,25.52,0,0,1-3.66-2.42,17.93,17.93,0,0,1-1.78-1.62"/><path class="cls-3" d="M570.41,202.66a.41.41,0,0,1-.13.08"/><path class="cls-4" d="M576,198.57a15.47,15.47,0,0,1-1.72,1.56,24,24,0,0,1-3.85,2.53"/><path class="cls-4" d="M238,425a18.93,18.93,0,0,1,2.75-2.88,35.67,35.67,0,0,1,7.16-4.71C302.58,389.16,523,393.06,571,418.86a31.58,31.58,0,0,1,4.6,3,14.39,14.39,0,0,1,2.13,1.94"/><path class="cls-5" d="M576,225.66c-5.76,6.12-21.06,11-42.14,14.76-65.15,11.5-185.58,11.5-250.75,0-21.12-3.75-36.41-8.65-42.18-14.79"/><path class="cls-6" d="M230,397.91c6.79-8.67,27-15.13,54.51-19.58,68.46-11,182.32-9.61,248.81,1.57,25.16,4.25,43.52,9.88,50.09,16.77"/><circle class="cls-7" cx="644" cy="310.5" r="93.3"/><path class="cls-8" d="M678.76,355.94H666.67V311.45H621.33v44.49H609.24V265.06h12.09V300.7h45.34V265.06h12.09Z"/><ellipse class="cls-7" cx="172.8" cy="310.5" rx="93.36" ry="93.3"/><path class="cls-8" d="M211.22,310.59a46.65,46.65,0,0,1-5.41,22.46,40.37,40.37,0,0,1-14.38,15.63,44.89,44.89,0,0,1-13.9,5.55,96,96,0,0,1-20.18,1.71h-23V265.06H157.1q13.32,0,21.17,1.92a45.9,45.9,0,0,1,13.28,5.28A40.61,40.61,0,0,1,206,287.7Q211.22,297.35,211.22,310.59Zm-12.64-.18q0-10.68-3.73-18a27.27,27.27,0,0,0-11.12-11.53,37.48,37.48,0,0,0-11.42-4.24,75.46,75.46,0,0,0-14.47-1.19H146.48v70.12h11.36a79.11,79.11,0,0,0,15.23-1.28,34.17,34.17,0,0,0,12-4.76,27.35,27.35,0,0,0,10.17-11.41Q198.58,321,198.58,310.41Z"/></svg>